<svg width="28" height="28" viewBox="0 0 28 28" fill="none" xmlns="http://www.w3.org/2000/svg">
<path fill-rule="evenodd" clip-rule="evenodd" d="M15.8507 2.3335C16.3985 2.33363 16.9288 2.5265 17.3487 2.87833L17.5003 3.01716L22.65 8.16683C23.0373 8.55419 23.2761 9.06549 23.3243 9.61116L23.3337 9.8165V23.3335C23.3338 23.9222 23.1115 24.4892 22.7112 24.9208C22.311 25.3524 21.7623 25.6168 21.1753 25.661L21.0003 25.6668H7.00033C6.41165 25.667 5.84466 25.4447 5.41302 25.0444C4.98137 24.6441 4.71698 24.0955 4.67283 23.5085L4.66699 23.3335V4.66683C4.66681 4.07816 4.88913 3.51117 5.28941 3.07952C5.68968 2.64788 6.23831 2.38348 6.82533 2.33933L7.00033 2.3335H15.8507ZM14.0003 4.66683H7.00033V23.3335H21.0003V11.6668H15.7503C15.3153 11.6668 14.8959 11.5048 14.5738 11.2123C14.2518 10.9198 14.0503 10.5179 14.0085 10.0848L14.0003 9.91683V4.66683ZM15.153 13.8228C15.4323 15.5997 16.3615 17.2096 17.7605 18.3402C18.7953 19.1767 17.8492 20.8147 16.6078 20.3375C14.9295 19.6913 13.0711 19.6913 11.3928 20.3375C10.1503 20.8158 9.20416 19.1767 10.239 18.3402C11.638 17.2096 12.5672 15.5997 12.8465 13.8228C13.0542 12.508 14.9465 12.5092 15.153 13.8228ZM13.998 16.5108L13.1953 17.9062H14.8053L13.998 16.5108ZM16.3337 5.14983V9.3335H20.5173L16.3337 5.14983Z" fill="white"/>
</svg>
