<svg width="42" height="42" viewBox="0 0 42 42" fill="none" xmlns="http://www.w3.org/2000/svg">
<g clip-path="url(#clip0_5072_20521)">
<path d="M14.939 3.79008C14.939 1.71522 16.6265 0 18.6737 0C20.7486 0 22.4361 1.71522 22.4361 3.79008C22.4361 5.8926 20.7486 7.58015 18.6737 7.58015C16.6265 7.58015 14.939 5.8926 14.939 3.79008ZM10.8999 29.4907C10.8999 31.5932 12.5875 33.3084 14.6347 33.3084C16.7095 33.3084 18.3971 31.5932 18.3971 29.4907C18.3971 27.4158 16.7095 25.7006 14.6347 25.7006C12.5875 25.7006 10.8999 27.4158 10.8999 29.4907ZM15.9903 22.8511C17.3182 23.1278 18.5077 23.7917 19.393 24.76C18.7844 23.7364 18.4248 22.5191 18.4248 21.3019C18.4248 17.8438 20.9976 14.9667 24.3727 14.6347C24.7047 14.5793 25.0366 14.5793 25.341 14.607V12.9748C25.0643 11.5362 23.7641 10.4573 22.2425 10.4573H15.271C14.3027 10.4573 13.4174 10.8723 12.8088 11.6469L12.9195 11.9512H12.7535C13.0301 12.6981 13.1961 13.5004 13.1961 14.3027C13.1961 15.7689 12.6981 17.2075 11.8129 18.3971C13.9154 19.0057 15.52 20.7209 15.9903 22.8511ZM21.3019 21.3296C21.3019 23.4044 22.9894 25.1196 25.0643 25.1196C27.1115 25.1196 28.7991 23.4044 28.7991 21.3296C28.7991 19.227 27.1115 17.5395 25.0643 17.5395C22.9894 17.5395 21.3019 19.227 21.3019 21.3296ZM34.83 13.4451C36.9048 13.4451 38.5924 11.7299 38.5924 9.62735C38.5924 7.55249 36.9048 5.83727 34.83 5.83727C32.7828 5.83727 31.0952 7.55249 31.0952 9.62735C31.0952 11.7299 32.7828 13.4451 34.83 13.4451ZM9.40603 33.6127C8.52076 32.4508 8.02279 31.0122 8.02279 29.5183C8.02279 26.4199 10.0977 23.7364 13.0578 22.9894C12.5598 21.7999 11.3979 21.0529 10.153 21.0529H3.31978C2.13019 21.0529 0.995933 21.6062 0.414972 22.6575C0.138324 23.1554 0 23.7087 0 24.262V26.5859L0.0276648 35.6876H3.4581V41.4972H5.20098V39.45C5.20098 36.7665 6.9162 34.4427 9.40603 33.6127ZM6.63955 18.1204C8.71441 18.1204 10.402 16.4329 10.402 14.3304C10.402 12.2278 8.71441 10.5403 6.63955 10.5403C4.59236 10.5403 2.9048 12.2278 2.9048 14.3304C2.9048 16.4329 4.59236 18.1204 6.63955 18.1204ZM31.6485 30.5973C31.3442 29.1587 30.127 28.1074 28.6607 28.0521H21.5509C21.4402 28.0521 21.3019 28.0521 21.1636 28.0798C21.2742 28.5501 21.3019 29.0204 21.3019 29.4907C21.3019 30.9292 20.8316 32.3401 19.974 33.5021L20.7209 33.8617C22.5191 34.6917 23.7917 36.3239 24.1514 38.2604L24.2067 38.4817V41.4972H31.7039V31.2059C31.7039 31.1229 31.6762 31.0399 31.6762 30.9569L31.6485 30.6249V30.5973ZM38.3434 16.3776H29.5183C30.9016 17.6501 31.6762 19.4484 31.7039 21.3296C31.7039 22.7958 31.2059 24.2344 30.3483 25.3963C34.4703 26.5305 34.581 31.2059 34.581 31.2612V41.4972H38.0391V30.9846H41.4972V19.559C41.4972 17.7885 40.0863 16.3776 38.3434 16.3776ZM18.2311 36.2409H11.2319C10.3743 36.2409 9.59968 36.5729 8.99106 37.1815C8.38243 37.7901 8.07812 38.5924 8.07812 39.45V41.4972H21.3296V38.7584C21.0252 37.3198 19.725 36.2409 18.2311 36.2409Z" fill="#B9B9B9"/>
</g>
<defs>
<clipPath id="clip0_5072_20521">
<rect width="41.4972" height="41.4972" fill="white"/>
</clipPath>
</defs>
</svg>
